<svg version="1.1" id="Layer_1" xmlns="http://www.w3.org/2000/svg" xmlns:xlink="http://www.w3.org/1999/xlink" x="0px" y="0px"
	 width="100%" viewBox="0 0 1024 1024" enable-background="new 0 0 1024 1024" xml:space="preserve">
<path fill="none" opacity="1.000000" stroke="none" 
	d="
M574.000000,1025.000000 
	C382.666656,1025.000000 191.833328,1025.000000 1.000000,1025.000000 
	C1.000000,683.666687 1.000000,342.333344 1.000000,1.000000 
	C342.333344,1.000000 683.666687,1.000000 1025.000000,1.000000 
	C1025.000000,342.333344 1025.000000,683.666687 1025.000000,1025.000000 
	C874.833313,1025.000000 724.666687,1025.000000 574.000000,1025.000000 
M437.319794,784.129333 
	C418.372040,778.168945 400.437927,769.876587 383.306305,759.930603 
	C341.305542,735.546753 306.467438,703.323853 279.338257,663.023682 
	C240.115479,604.758545 223.110748,540.538208 229.287979,470.480377 
	C233.008881,428.280457 246.500732,389.026276 267.032104,352.150970 
	C289.891998,311.093689 320.156311,276.267975 356.126007,246.111038 
	C393.162811,215.059464 434.289459,190.852753 478.696930,172.288834 
	C524.639832,153.083069 572.439941,140.736328 622.219666,136.636505 
	C656.578613,133.806717 690.724487,134.878738 724.574463,141.879593 
	C729.901123,142.981262 735.237976,144.033768 740.570129,145.108994 
	C740.749817,144.607056 740.929504,144.105103 741.109192,143.603149 
	C728.312317,136.999268 715.669006,130.075394 702.691223,123.848526 
	C654.020874,100.495972 602.519653,87.514267 548.840271,83.218353 
	C508.968933,80.027481 469.319397,82.103180 430.007507,89.923180 
	C353.352142,105.171616 285.091980,137.761200 226.316971,189.372971 
	C173.838593,235.455475 135.419083,291.384613 111.410561,357.120331 
	C91.382751,411.956757 84.399963,468.492889 89.227844,526.518188 
	C92.247215,562.807495 100.108826,598.109680 112.761345,632.288391 
	C132.266373,684.978027 160.821228,732.207275 199.149429,773.309631 
	C244.831177,822.297852 299.122162,858.552429 361.938782,882.018005 
	C436.143982,909.737854 512.525208,915.937134 590.311157,903.585510 
	C653.967041,893.477539 712.807373,870.351379 766.090393,833.560364 
	C806.829956,805.430298 841.369446,771.118042 869.816956,730.711609 
	C903.066223,683.484924 925.277222,631.440613 936.491516,574.757935 
	C944.402588,534.771362 946.228882,494.440155 941.677307,453.976654 
	C936.705078,409.774048 925.282532,367.335358 906.335693,326.848602 
	C884.802551,280.835388 856.667419,239.668503 820.263916,204.221786 
	C815.416077,199.501434 810.692017,193.747925 804.742798,191.205048 
	C745.561401,165.908646 683.845215,159.316788 620.388489,168.292191 
	C574.033386,174.848709 529.547302,188.081741 487.226105,208.163589 
	C435.108307,232.894028 388.655365,265.481873 349.929565,308.575256 
	C321.134949,340.617432 299.026611,376.642273 285.343079,417.618073 
	C265.961243,475.657654 267.759247,533.275879 290.507050,589.895996 
	C308.954926,635.813477 338.154968,674.021973 378.052460,703.455322 
	C430.082214,741.839050 487.629486,762.231323 553.168213,753.907959 
	C590.293701,749.193115 623.868469,735.669312 652.291260,710.892334 
	C689.019348,678.875244 704.850037,638.307068 698.679810,590.038940 
	C692.369751,540.676025 652.910339,500.417603 603.812866,492.282349 
	C578.624451,488.108765 554.544861,491.712341 533.371216,506.952972 
	C518.715515,517.501953 510.123108,531.835876 509.689789,550.405273 
	C509.207031,571.093994 522.233032,587.463806 541.753784,590.589172 
	C556.171814,592.897583 567.839844,583.491760 568.970642,569.002808 
	C569.219238,565.816650 570.187927,562.399475 571.798584,559.661438 
	C576.349182,551.925659 585.675049,548.658936 594.872009,551.003662 
	C604.247742,553.393982 610.477661,561.223022 610.888611,571.477966 
	C611.228516,579.957520 609.241516,588.012512 605.601501,595.629944 
	C594.359436,619.156555 565.694641,633.559143 537.839172,629.753418 
	C490.395599,623.271423 458.393280,578.068359 468.841461,531.201294 
	C477.420441,492.718964 503.249084,469.409821 539.563599,458.269531 
	C588.989563,443.106995 635.512085,452.241943 676.773193,482.547760 
	C727.179993,519.571045 749.483215,570.254211 741.711426,632.623718 
	C734.779236,688.255005 704.741455,729.715820 658.338928,759.690369 
	C625.659729,780.800049 589.418823,792.171570 550.831970,796.388733 
	C512.359741,800.593323 474.755737,796.880859 437.319794,784.129333 
z"/>
<path fill="#0B1F33" opacity="1.000000" stroke="none" 
	d="
M437.695740,784.262329 
	C474.755737,796.880859 512.359741,800.593323 550.831970,796.388733 
	C589.418823,792.171570 625.659729,780.800049 658.338928,759.690369 
	C704.741455,729.715820 734.779236,688.255005 741.711426,632.623718 
	C749.483215,570.254211 727.179993,519.571045 676.773193,482.547760 
	C635.512085,452.241943 588.989563,443.106995 539.563599,458.269531 
	C503.249084,469.409821 477.420441,492.718964 468.841461,531.201294 
	C458.393280,578.068359 490.395599,623.271423 537.839172,629.753418 
	C565.694641,633.559143 594.359436,619.156555 605.601501,595.629944 
	C609.241516,588.012512 611.228516,579.957520 610.888611,571.477966 
	C610.477661,561.223022 604.247742,553.393982 594.872009,551.003662 
	C585.675049,548.658936 576.349182,551.925659 571.798584,559.661438 
	C570.187927,562.399475 569.219238,565.816650 568.970642,569.002808 
	C567.839844,583.491760 556.171814,592.897583 541.753784,590.589172 
	C522.233032,587.463806 509.207031,571.093994 509.689789,550.405273 
	C510.123108,531.835876 518.715515,517.501953 533.371216,506.952972 
	C554.544861,491.712341 578.624451,488.108765 603.812866,492.282349 
	C652.910339,500.417603 692.369751,540.676025 698.679810,590.038940 
	C704.850037,638.307068 689.019348,678.875244 652.291260,710.892334 
	C623.868469,735.669312 590.293701,749.193115 553.168213,753.907959 
	C487.629486,762.231323 430.082214,741.839050 378.052460,703.455322 
	C338.154968,674.021973 308.954926,635.813477 290.507050,589.895996 
	C267.759247,533.275879 265.961243,475.657654 285.343079,417.618073 
	C299.026611,376.642273 321.134949,340.617432 349.929565,308.575256 
	C388.655365,265.481873 435.108307,232.894028 487.226105,208.163589 
	C529.547302,188.081741 574.033386,174.848709 620.388489,168.292191 
	C683.845215,159.316788 745.561401,165.908646 804.742798,191.205048 
	C810.692017,193.747925 815.416077,199.501434 820.263916,204.221786 
	C856.667419,239.668503 884.802551,280.835388 906.335693,326.848602 
	C925.282532,367.335358 936.705078,409.774048 941.677307,453.976654 
	C946.228882,494.440155 944.402588,534.771362 936.491516,574.757935 
	C925.277222,631.440613 903.066223,683.484924 869.816956,730.711609 
	C841.369446,771.118042 806.829956,805.430298 766.090393,833.560364 
	C712.807373,870.351379 653.967041,893.477539 590.311157,903.585510 
	C512.525208,915.937134 436.143982,909.737854 361.938782,882.018005 
	C299.122162,858.552429 244.831177,822.297852 199.149429,773.309631 
	C160.821228,732.207275 132.266373,684.978027 112.761345,632.288391 
	C100.108826,598.109680 92.247215,562.807495 89.227844,526.518188 
	C84.399963,468.492889 91.382751,411.956757 111.410561,357.120331 
	C135.419083,291.384613 173.838593,235.455475 226.316971,189.372971 
	C285.091980,137.761200 353.352142,105.171616 430.007507,89.923180 
	C469.319397,82.103180 508.968933,80.027481 548.840271,83.218353 
	C602.519653,87.514267 654.020874,100.495972 702.691223,123.848526 
	C715.669006,130.075394 728.312317,136.999268 741.109192,143.603149 
	C740.929504,144.105103 740.749817,144.607056 740.570129,145.108994 
	C735.237976,144.033768 729.901123,142.981262 724.574463,141.879593 
	C690.724487,134.878738 656.578613,133.806717 622.219666,136.636505 
	C572.439941,140.736328 524.639832,153.083069 478.696930,172.288834 
	C434.289459,190.852753 393.162811,215.059464 356.126007,246.111038 
	C320.156311,276.267975 289.891998,311.093689 267.032104,352.150970 
	C246.500732,389.026276 233.008881,428.280457 229.287979,470.480377 
	C223.110748,540.538208 240.115479,604.758545 279.338257,663.023682 
	C306.467438,703.323853 341.305542,735.546753 383.306305,759.930603 
	C400.437927,769.876587 418.372040,778.168945 437.695740,784.262329 
z"/>
</svg>